<?xml version="1.0" encoding="UTF-8"?>
<svg version="1.1" xmlns="http://www.w3.org/2000/svg" width="500" height="500">
<path d="M0 0 C165 0 330 0 500 0 C500 165 500 330 500 500 C335 500 170 500 0 500 C0 335 0 170 0 0 Z " fill="#F0F1EA" transform="translate(0,0)"/>
<path d="M0 0 C1.5078125 1.43359375 1.5078125 1.43359375 3.125 3.4375 C5.78633056 6.62099036 8.53789925 9.59350183 11.5 12.5 C14.9071879 15.86114482 18.07458174 19.33701203 21.1875 22.96875 C23.2109288 25.23638572 25.33653347 27.3657695 27.5 29.5 C30.9071879 32.86114482 34.07458174 36.33701203 37.1875 39.96875 C39.2109288 42.23638572 41.33653347 44.3657695 43.5 46.5 C46.9071879 49.86114482 50.07458174 53.33701203 53.1875 56.96875 C55.2109288 59.23638572 57.33653347 61.3657695 59.5 63.5 C62.26560408 66.22829407 64.91287031 68.98516834 67.4375 71.9375 C70.15619248 75.1103592 73.02751675 78.06338382 76 81 C79.58558699 84.54232199 82.94891662 88.17555661 86.22265625 92.00390625 C88.94977223 95.06666727 91.89404637 97.90223493 94.8125 100.78125 C97.40196881 103.40771122 99.78836964 106.16976458 102.1875 108.96875 C104.92532599 112.03700326 107.8742037 114.88270348 110.80078125 117.76953125 C113.44941052 120.45579646 115.9044123 123.27450756 118.359375 126.13671875 C120.78335709 128.88966984 123.37509926 131.43912123 126 134 C124.43669591 137.9683873 121.67879829 140.4157171 118.5625 143.1875 C118.02753906 143.67089844 117.49257813 144.15429688 116.94140625 144.65234375 C112.6720617 148.47864311 108.24765938 152.09383728 103.78125 155.6875 C100.75980664 158.19971133 97.87559922 160.82402457 95 163.5 C90.38998361 167.7895776 85.62216764 171.80410897 80.71484375 175.75390625 C76.94495533 178.87287869 73.37535549 182.19371847 69.77734375 185.5078125 C66.09797246 188.80941431 62.27296412 191.90876796 58.41015625 194.9921875 C55.96121763 196.96048736 55.96121763 196.96048736 53.80859375 199.2578125 C52 201 52 201 50 201 C50.3609375 202.19238281 50.721875 203.38476562 51.09375 204.61328125 C51.56271467 206.17962324 52.03145289 207.74603305 52.5 209.3125 C52.85771484 210.49102539 52.85771484 210.49102539 53.22265625 211.69335938 C53.44824219 212.45068359 53.67382812 213.20800781 53.90625 213.98828125 C54.11572266 214.68477783 54.32519531 215.38127441 54.54101562 216.09887695 C55 218 55 218 55 221 C53.99622314 221.2266333 52.99244629 221.4532666 51.95825195 221.68676758 C48.21953697 222.533353 44.48356333 223.39153721 40.74829102 224.25317383 C39.13410229 224.62383699 37.51919585 224.9913894 35.90356445 225.35571289 C33.57565844 225.88123032 31.2505994 226.41803898 28.92578125 226.95703125 C28.20787918 227.11653763 27.48997711 227.27604401 26.75032043 227.44038391 C20.28811613 228.95959429 16.52400737 231.41394164 11.85083008 236.02416992 C3.53705321 244.00017074 -5.58965353 246 -17 246 C-16.98952637 246.62302002 -16.97905273 247.24604004 -16.96826172 247.88793945 C-16.75020381 263.29414456 -17.00016266 278.68614302 -17.58184814 294.08187866 C-17.65222816 296.02578594 -17.71421324 297.97001548 -17.76776123 299.91445923 C-17.84624657 302.67360441 -17.95620831 305.42979834 -18.07421875 308.1875 C-18.09216995 309.01867844 -18.11012115 309.84985687 -18.12861633 310.70622253 C-18.33941472 314.80550842 -18.46629916 316.43265723 -21.36645508 319.515625 C-24.61974108 321.34931174 -26.32621606 321.70349054 -30 321 C-34.75683416 316.67400664 -34.78566399 312.24034278 -35.125 306.1875 C-35.23110596 304.64557983 -35.23110596 304.64557983 -35.33935547 303.07250977 C-36.61643542 283.073773 -37.24374509 263.02376052 -38 243 C-38.99 243 -39.98 243 -41 243 C-40.83886719 243.49242187 -40.67773438 243.98484375 -40.51171875 244.4921875 C-38.28498369 255.40488911 -38.87489321 269.39764333 -44.8125 278.9375 C-48.16399828 283.56109982 -51.42062288 285.82539429 -57 287 C-58.60027072 287.13938706 -60.20645704 287.21964958 -61.8125 287.25 C-62.62332031 287.27578125 -63.43414062 287.3015625 -64.26953125 287.328125 C-67.92559413 286.8887698 -70.66736374 285.55768977 -74 284 C-73.98952637 284.58378418 -73.97905273 285.16756836 -73.96826172 285.76904297 C-73.92611892 288.47098301 -73.90049195 291.17285351 -73.875 293.875 C-73.84986328 295.25171875 -73.84986328 295.25171875 -73.82421875 296.65625 C-73.77152622 304.1385888 -73.75989774 311.88874687 -78.25 318.125 C-81 320 -81 320 -84.0625 320.5625 C-87.83941569 319.83926083 -88.70125647 319.09141371 -91 316 C-91.98634989 312.71497714 -92.36657256 309.40196486 -92.75 306 C-92.87286377 304.98357422 -92.99572754 303.96714844 -93.12231445 302.91992188 C-94.7614683 287.35766962 -94.25438862 271.62337489 -94 256 C-97.63 256.99 -101.26 257.98 -105 259 C-104.360625 260.11375 -103.72125 261.2275 -103.0625 262.375 C-98.54405908 270.24583256 -98.77560094 280.32578494 -100.68359375 289.16796875 C-103.24184362 296.01473707 -107.04140085 301.33242594 -113.4375 304.9375 C-118.67252371 306.49882286 -122.15821215 306.92089392 -127.125 304.4375 C-134.57230615 298.12347957 -137.52306286 290.7814088 -138.3203125 281.1171875 C-138.70286366 271.6735118 -137.72721442 264.49177123 -131.5625 257.0625 C-129.07711464 255.06206788 -127.02835119 253.95176752 -124 253 C-124 252.34 -124 251.68 -124 251 C-124.59167969 250.87882813 -125.18335938 250.75765625 -125.79296875 250.6328125 C-134.37393768 248.81303116 -134.37393768 248.81303116 -138 247 C-138.33 246.34 -138.66 245.68 -139 245 C-140.98 247.97 -142.96 250.94 -145 254 C-148.96861096 252.41255561 -151.09236223 251.37911457 -154.28515625 248.84765625 C-155.06310547 248.23599609 -155.84105469 247.62433594 -156.64257812 246.99414062 C-157.44115234 246.35669922 -158.23972656 245.71925781 -159.0625 245.0625 C-160.65741984 243.80321791 -162.25246753 242.54409772 -163.84765625 241.28515625 C-164.54898682 240.72707275 -165.25031738 240.16898926 -165.97290039 239.59399414 C-167.95861458 238.0325431 -169.97911858 236.51566107 -172 235 C-172 245.56 -172 256.12 -172 267 C-169.525 265.515 -169.525 265.515 -167 264 C-160.88926475 262.99791801 -155.33878481 263.8172629 -150 267 C-144.43669087 271.97228784 -142.2978059 277.0277949 -141.734375 284.54296875 C-141.82144997 304.85320551 -141.82144997 304.85320551 -146.25 311.25 C-149.53054865 313.33762187 -151.18275535 313.66386863 -155 313 C-156.66577148 311.92724609 -156.66577148 311.92724609 -158 310 C-158.23767712 307.46765833 -158.30217849 305.18834607 -158.22265625 302.6640625 C-158.21366806 301.94769623 -158.20467987 301.23132996 -158.19541931 300.49325562 C-158.16540408 298.20334387 -158.11564872 295.91448332 -158.0625 293.625 C-158.01457131 291.34272754 -157.97120832 289.06073686 -157.94029236 286.77816772 C-157.92064193 285.35889941 -157.89113464 283.93972302 -157.85035706 282.52090454 C-157.79027942 278.54618268 -158.19797261 275.55909775 -160 272 C-161.21589984 270.56844101 -161.21589984 270.56844101 -164.8125 270.6875 C-167.72752228 270.75018865 -168.86373967 270.91964135 -171.4375 272.4375 C-176.10576091 280.0934479 -174.33063608 292.96181147 -174.51757812 301.66601562 C-174.55173828 302.83712891 -174.58589844 304.00824219 -174.62109375 305.21484375 C-174.6461499 306.27823975 -174.67120605 307.34163574 -174.69702148 308.43725586 C-175 311 -175 311 -177 313 C-178.875 313.30078125 -178.875 313.30078125 -181 313.3125 C-181.70125 313.32925781 -182.4025 313.34601563 -183.125 313.36328125 C-184.053125 313.18345703 -184.053125 313.18345703 -185 313 C-187.51226045 309.23160933 -187.65561952 305.82827107 -188.0625 301.4375 C-188.14048828 300.69564453 -188.21847656 299.95378906 -188.29882812 299.18945312 C-189.8958568 283.10037907 -190.16168779 267.0276286 -190.13037109 250.87182617 C-190.12492359 247.51541808 -190.13039646 244.15913887 -190.13671875 240.80273438 C-190.13605935 238.66145804 -190.13478105 236.52018178 -190.1328125 234.37890625 C-190.13483673 233.3790419 -190.13686096 232.37917755 -190.13894653 231.34901428 C-190.13421829 229.96497658 -190.13421829 229.96497658 -190.12939453 228.55297852 C-190.12859894 227.7434523 -190.12780334 226.93392609 -190.12698364 226.09986877 C-190 224 -190 224 -189 221 C-189.51691406 220.77570313 -190.03382813 220.55140625 -190.56640625 220.3203125 C-193.93241833 218.49412938 -196.89860616 216.1889265 -199.9375 213.875 C-200.62553711 213.35510498 -201.31357422 212.83520996 -202.02246094 212.29956055 C-204.3515603 210.53728424 -206.67626298 208.76934056 -209 207 C-210.29091553 206.01749268 -210.29091553 206.01749268 -211.60791016 205.01513672 C-215.23980815 202.24988927 -218.87074807 199.48339506 -222.49975586 196.71435547 C-226.98654058 193.29136301 -231.47907992 189.87777314 -236 186.5 C-242.43031139 181.69341143 -248.8204199 176.83387492 -255.19311523 171.95117188 C-259.13295567 168.93327045 -263.07297005 165.9261129 -267.1015625 163.02734375 C-267.69654541 162.59220459 -268.29152832 162.15706543 -268.90454102 161.70874023 C-270.42965906 160.59684811 -271.96627185 159.50076798 -273.50390625 158.40625 C-279.36192814 152.75908023 -281.57529305 144.23603583 -284.3125 136.75 C-284.68439453 135.7703125 -285.05628906 134.790625 -285.43945312 133.78125 C-285.78556641 132.83765625 -286.13167969 131.8940625 -286.48828125 130.921875 C-286.80321533 130.07206055 -287.11814941 129.22224609 -287.44262695 128.34667969 C-288.0723429 125.69541832 -287.87481738 124.54953042 -287 122 C-285.83262634 120.46513367 -285.83262634 120.46513367 -284.35131836 118.99487305 C-283.79661362 118.43716721 -283.24190887 117.87946136 -282.6703949 117.30485535 C-282.06631302 116.71312027 -281.46223114 116.12138519 -280.83984375 115.51171875 C-279.9048983 114.57958305 -279.9048983 114.57958305 -278.95106506 113.62861633 C-277.62882752 112.31310086 -276.30299728 111.00118808 -274.97387695 109.69262695 C-272.96254611 107.71216175 -270.96180606 105.72150323 -268.96289062 103.72851562 C-258.49740608 93.32794144 -258.49740608 93.32794144 -253.97265625 89.48828125 C-247.42942706 83.92278611 -241.53718413 77.60081318 -235.5 71.5 C-232.95093376 68.92406781 -230.39838646 66.35165686 -227.84375 63.78125 C-227.27579712 63.20499878 -226.70784424 62.62874756 -226.12268066 62.03503418 C-223.18347735 59.07831145 -220.18257978 56.25340218 -217.02734375 53.52734375 C-213.07792453 50.1118411 -209.3845939 46.49682481 -205.71875 42.78125 C-205.06096558 42.11967896 -204.40318115 41.45810791 -203.72546387 40.77648926 C-201.64782726 38.68677265 -199.57349373 36.59382685 -197.5 34.5 C-194.7634185 31.736583 -192.02337737 28.97666278 -189.28125 26.21875 C-188.66954956 25.59875122 -188.05784912 24.97875244 -187.4276123 24.33996582 C-183.66188119 20.55330122 -179.76941071 16.97563587 -175.71984863 13.49375916 C-173.72717846 11.76304329 -171.84670397 9.94767697 -170 8.0625 C-169.4225 7.47597656 -168.845 6.88945313 -168.25 6.28515625 C-167.8375 5.86105469 -167.425 5.43695313 -167 5 C-164.34448995 6.25973923 -162.01106647 7.62167082 -159.671875 9.3984375 C-158.73021484 10.1095166 -158.73021484 10.1095166 -157.76953125 10.83496094 C-157.10308594 11.34317383 -156.43664062 11.85138672 -155.75 12.375 C-154.3281985 13.45061799 -152.90632111 14.52613569 -151.484375 15.6015625 C-150.75154297 16.1574707 -150.01871094 16.71337891 -149.26367188 17.28613281 C-145.51933032 20.12104197 -141.75899835 22.93457309 -138 25.75 C-136.64575855 26.76552528 -135.29158489 27.78114097 -133.9375 28.796875 C-132.968125 29.52390625 -131.99875 30.2509375 -131 31 C-126.50810233 27.69377383 -122.17944667 24.32326037 -118 20.625 C-107.3528962 11.88285652 -92.24438693 3.97263512 -78.09375 4.7265625 C-63.47729378 6.63542805 -50.18420524 13.23332325 -39.24829102 23.02563477 C-37.63280572 24.47113213 -37.63280572 24.47113213 -35 26 C-30.47087932 25.26040798 -27.56715486 22.03306684 -24.375 18.9375 C-19.54295861 14.37046588 -14.57904733 10.11575941 -9.375 5.97265625 C-6.95583459 4.04452857 -6.95583459 4.04452857 -4.875 1.74609375 C-3 0 -3 0 0 0 Z " fill="#EF7423" transform="translate(330,59)"/>
<path d="M0 0 C2.65551005 1.25973923 4.98893353 2.62167082 7.328125 4.3984375 C7.95589844 4.87249023 8.58367187 5.34654297 9.23046875 5.83496094 C9.89691406 6.34317383 10.56335938 6.85138672 11.25 7.375 C12.6718015 8.45061799 14.09367889 9.52613569 15.515625 10.6015625 C16.24845703 11.1574707 16.98128906 11.71337891 17.73632812 12.28613281 C21.48066968 15.12104197 25.24100165 17.93457309 29 20.75 C30.35424145 21.76552528 31.70841511 22.78114097 33.0625 23.796875 C34.031875 24.52390625 35.00125 25.2509375 36 26 C40.49189767 22.69377383 44.82055333 19.32326037 49 15.625 C59.6471038 6.88285652 74.75561307 -1.02736488 88.90625 -0.2734375 C111.15372091 2.63201579 127.43013444 16.31759156 142.9375 31.4375 C143.75009277 32.21915527 144.56268555 33.00081055 145.39990234 33.80615234 C146.14320801 34.54945801 146.88651367 35.29276367 147.65234375 36.05859375 C148.65769165 37.05330688 148.65769165 37.05330688 149.68334961 38.06811523 C151 40 151 40 150.70922852 42.24633789 C150.47518311 42.82504639 150.2411377 43.40375488 150 44 C148.24853516 44.72241211 148.24853516 44.72241211 146 45 C144.05224609 43.58813477 144.05224609 43.58813477 142.0234375 41.44140625 C141.27441162 40.66587402 140.52538574 39.8903418 139.75366211 39.09130859 C138.96870361 38.25680176 138.18374512 37.42229492 137.375 36.5625 C128.29078112 27.09757831 128.29078112 27.09757831 118 19 C117.67 19 117.34 19 117 19 C117.66708984 20.01320313 117.66708984 20.01320313 118.34765625 21.046875 C118.91355469 21.93890625 119.47945312 22.8309375 120.0625 23.75 C120.63097656 24.63171875 121.19945312 25.5134375 121.78515625 26.421875 C123 29 123 29 122.93359375 31.203125 C121.7170918 33.5445095 120.4160061 34.06477183 118 35 C117.48050781 34.11957031 116.96101562 33.23914063 116.42578125 32.33203125 C115.72173709 31.15862432 115.01728832 29.9854601 114.3125 28.8125 C113.97283203 28.23435547 113.63316406 27.65621094 113.28320312 27.06054688 C110.91626046 23.14513704 108.35219725 20.11736732 105 17 C105.33 17.7425 105.66 18.485 106 19.25 C108.63771142 29.14141783 107.1817109 39.70198378 103 49 C98.91558442 53 98.91558442 53 95 53 C96.78754098 44.61377049 96.78754098 44.61377049 98.125 40.75 C100.08240042 32.36114107 100.11183806 23.67543105 96 16 C92.89164837 12.69271386 89.76972616 10.19663624 85.1875 9.6875 C81.28907159 10.06969886 79.87517884 11.44428548 77 14 C76.34 14 75.68 14 75 14 C74.71125 14.7425 74.4225 15.485 74.125 16.25 C73 19 73 19 71.9609375 20.84375 C68.85984352 27.80230234 70.85608283 35.8443299 73.375 42.6875 C79.06541423 57.19805628 87.94121938 71.94121938 99 83 C99.125 85.625 99.125 85.625 99 88 C96.525 88.495 96.525 88.495 94 89 C88.27646429 81.96058598 82.7282543 74.8842317 77.8125 67.25 C77.23350952 66.35643799 77.23350952 66.35643799 76.64282227 65.44482422 C74 61.26131869 74 61.26131869 74 59 C71.03 59.495 71.03 59.495 68 60 C68.99 68.91 68.99 68.91 70 78 C68.02 79.32 66.04 80.64 64 82 C63.68329347 80.35497095 63.371909 78.70891723 63.0625 77.0625 C62.88847656 76.14597656 62.71445313 75.22945313 62.53515625 74.28515625 C61.87029563 70.20378561 61.42489745 66.11229819 61 62 C60.02240723 62.23710693 59.04481445 62.47421387 58.03759766 62.71850586 C54.36764654 63.60673925 50.69562224 64.48613273 47.02294922 65.36303711 C45.44165217 65.74185934 43.86090677 66.12299274 42.28076172 66.5065918 C33.85772104 68.54975189 25.67981933 70.45207553 17 71 C17.3938942 72.36241318 17.3938942 72.36241318 17.79574585 73.75234985 C22.19350075 89.17691447 26.00340958 104.75390974 29.87955141 120.31541777 C30.89204695 124.37807772 31.90728692 128.44005183 32.92221069 132.50210571 C34.83991183 140.17908623 36.75521881 147.85666188 38.66962564 155.53446448 C40.83987843 164.23785439 43.01280966 172.94057486 45.1859715 181.64323878 C48.90412895 196.53318667 52.62040681 211.42360253 56.33421326 226.31463623 C56.64243515 227.55041412 56.95065704 228.78619202 57.26821899 230.05941772 C57.55803272 231.22767467 57.84784645 232.39593163 58.14644241 233.5995903 C58.71611902 235.86907262 59.29837699 238.13543333 59.89307785 240.39848709 C60.16880253 241.45627743 60.44452721 242.51406776 60.72860718 243.60391235 C60.97403952 244.52734751 61.21947186 245.45078266 61.47234154 246.4022007 C62.00212314 249.01045277 62.03130814 251.34813382 62 254 C62.78655453 255.96479227 62.78655453 255.96479227 63.9375 257.6875 C68.62609057 265.21766061 68.17318198 275.56313952 66.31640625 284.16796875 C63.75815638 291.01473707 59.95859915 296.33242594 53.5625 299.9375 C48.32747629 301.49882286 44.84178785 301.92089392 39.875 299.4375 C32.42769385 293.12347957 29.47693714 285.7814088 28.6796875 276.1171875 C28.29713634 266.6735118 29.27278558 259.49177123 35.4375 252.0625 C37.92288536 250.06206788 39.97164881 248.95176752 43 248 C43 247.34 43 246.68 43 246 C42.40832031 245.87882813 41.81664062 245.75765625 41.20703125 245.6328125 C32.62606232 243.81303116 32.62606232 243.81303116 29 242 C28.67 241.34 28.34 240.68 28 240 C26.02 242.97 24.04 245.94 22 249 C18.03138904 247.41255561 15.90763777 246.37911457 12.71484375 243.84765625 C11.93689453 243.23599609 11.15894531 242.62433594 10.35742188 241.99414062 C9.55884766 241.35669922 8.76027344 240.71925781 7.9375 240.0625 C6.34258016 238.80321791 4.74753247 237.54409772 3.15234375 236.28515625 C2.45101318 235.72707275 1.74968262 235.16898926 1.02709961 234.59399414 C-0.95861458 233.0325431 -2.97911858 231.51566107 -5 230 C-5 240.56 -5 251.12 -5 262 C-2.525 260.515 -2.525 260.515 0 259 C6.11073525 257.99791801 11.66121519 258.8172629 17 262 C22.56330913 266.97228784 24.7021941 272.0277949 25.265625 279.54296875 C25.17855003 299.85320551 25.17855003 299.85320551 20.75 306.25 C17.46945135 308.33762187 15.81724465 308.66386863 12 308 C10.33422852 306.92724609 10.33422852 306.92724609 9 305 C8.76232288 302.46765833 8.69782151 300.18834607 8.77734375 297.6640625 C8.78633194 296.94769623 8.79532013 296.23132996 8.80458069 295.49325562 C8.83459592 293.20334387 8.88435128 290.91448332 8.9375 288.625 C8.98542869 286.34272754 9.02879168 284.06073686 9.05970764 281.77816772 C9.07935807 280.35889941 9.10886536 278.93972302 9.14964294 277.52090454 C9.20972058 273.54618268 8.80202739 270.55909775 7 267 C5.78410016 265.56844101 5.78410016 265.56844101 2.1875 265.6875 C-0.72752228 265.75018865 -1.86373967 265.91964135 -4.4375 267.4375 C-9.10576091 275.0934479 -7.33063608 287.96181147 -7.51757812 296.66601562 C-7.55173828 297.83712891 -7.58589844 299.00824219 -7.62109375 300.21484375 C-7.6461499 301.27823975 -7.67120605 302.34163574 -7.69702148 303.43725586 C-8 306 -8 306 -10 308 C-11.875 308.30078125 -11.875 308.30078125 -14 308.3125 C-14.70125 308.32925781 -15.4025 308.34601563 -16.125 308.36328125 C-17.053125 308.18345703 -17.053125 308.18345703 -18 308 C-20.51226045 304.23160933 -20.65561952 300.82827107 -21.0625 296.4375 C-21.14048828 295.69564453 -21.21847656 294.95378906 -21.29882812 294.18945312 C-22.8958568 278.10037907 -23.16168779 262.0276286 -23.13037109 245.87182617 C-23.12492359 242.51541808 -23.13039646 239.15913887 -23.13671875 235.80273438 C-23.13605935 233.66145804 -23.13478105 231.52018178 -23.1328125 229.37890625 C-23.13483673 228.3790419 -23.13686096 227.37917755 -23.13894653 226.34901428 C-23.13421829 224.96497658 -23.13421829 224.96497658 -23.12939453 223.55297852 C-23.12859894 222.7434523 -23.12780334 221.93392609 -23.12698364 221.09986877 C-23 219 -23 219 -22 216 C-22.51691406 215.77570313 -23.03382813 215.55140625 -23.56640625 215.3203125 C-26.93241833 213.49412938 -29.89860616 211.1889265 -32.9375 208.875 C-33.62553711 208.35510498 -34.31357422 207.83520996 -35.02246094 207.29956055 C-37.3515603 205.53728424 -39.67626298 203.76934056 -42 202 C-43.29091553 201.01749268 -43.29091553 201.01749268 -44.60791016 200.01513672 C-48.23980815 197.24988927 -51.87074807 194.48339506 -55.49975586 191.71435547 C-59.98654058 188.29136301 -64.47907992 184.87777314 -69 181.5 C-75.43031139 176.69341143 -81.8204199 171.83387492 -88.19311523 166.95117188 C-92.13295567 163.93327045 -96.07297005 160.9261129 -100.1015625 158.02734375 C-100.69654541 157.59220459 -101.29152832 157.15706543 -101.90454102 156.70874023 C-103.42965906 155.59684811 -104.96627185 154.50076798 -106.50390625 153.40625 C-112.36192814 147.75908023 -114.57529305 139.23603583 -117.3125 131.75 C-117.68439453 130.7703125 -118.05628906 129.790625 -118.43945312 128.78125 C-118.78556641 127.83765625 -119.13167969 126.8940625 -119.48828125 125.921875 C-119.80321533 125.07206055 -120.11814941 124.22224609 -120.44262695 123.34667969 C-121.0723429 120.69541832 -120.87481738 119.54953042 -120 117 C-118.83262634 115.46513367 -118.83262634 115.46513367 -117.35131836 113.99487305 C-116.79661362 113.43716721 -116.24190887 112.87946136 -115.6703949 112.30485535 C-115.06631302 111.71312027 -114.46223114 111.12138519 -113.83984375 110.51171875 C-112.9048983 109.57958305 -112.9048983 109.57958305 -111.95106506 108.62861633 C-110.62882752 107.31310086 -109.30299728 106.00118808 -107.97387695 104.69262695 C-105.96254611 102.71216175 -103.96180606 100.72150323 -101.96289062 98.72851562 C-91.49740608 88.32794144 -91.49740608 88.32794144 -86.97265625 84.48828125 C-80.42942706 78.92278611 -74.53718413 72.60081318 -68.5 66.5 C-65.95093376 63.92406781 -63.39838646 61.35165686 -60.84375 58.78125 C-60.27579712 58.20499878 -59.70784424 57.62874756 -59.12268066 57.03503418 C-56.18347735 54.07831145 -53.18257978 51.25340218 -50.02734375 48.52734375 C-46.07792453 45.1118411 -42.3845939 41.49682481 -38.71875 37.78125 C-38.06096558 37.11967896 -37.40318115 36.45810791 -36.72546387 35.77648926 C-34.64782726 33.68677265 -32.57349373 31.59382685 -30.5 29.5 C-27.7634185 26.736583 -25.02337737 23.97666278 -22.28125 21.21875 C-21.66954956 20.59875122 -21.05784912 19.97875244 -20.4276123 19.33996582 C-16.66188119 15.55330122 -12.76941071 11.97563587 -8.71984863 8.49375916 C-6.72717846 6.76304329 -4.84670397 4.94767697 -3 3.0625 C-2.4225 2.47597656 -1.845 1.88945313 -1.25 1.28515625 C-0.8375 0.86105469 -0.425 0.43695313 0 0 Z " fill="#0FB0E9" transform="translate(163,64)"/>
<path d="M0 0 C0.74941398 2.99765593 1.39692275 5.97178234 2 9 C2.34998047 10.46179688 2.34998047 10.46179688 2.70703125 11.953125 C3.28846476 15.2158454 3.53828358 17.72215933 3 21 C0.20218034 24.73621881 -3.25696515 27.25685278 -7 30 C-8.55480237 31.33906424 -10.09802592 32.69178718 -11.625 34.0625 C-12.74886633 35.04296766 -13.87366661 36.02236743 -15 37 C-10.97731826 41.76772327 -6.83131307 46.38967954 -2.5625 50.9375 C1.47263053 55.25906796 5.46407234 59.60194518 9.328125 64.078125 C11.35758073 66.41105074 13.427647 68.70511245 15.5 71 C18.17048344 73.95869751 20.82298058 76.92926472 23.4375 79.9375 C26.24822525 83.16559512 29.115799 86.33738443 32 89.5 C35.45575413 93.28934126 38.8652289 97.11083698 42.23046875 100.98046875 C45.77576954 105.02665089 49.39458999 109.00743187 53 113 C57.77033937 118.28259058 62.51894407 123.57934135 67.1953125 128.9453125 C70.75638173 132.99969003 74.3834804 136.9951293 78 141 C82.76603516 146.27782418 87.5160289 151.5649635 92.1796875 156.93359375 C95.0010068 160.13633604 97.89626887 163.27194511 100.7890625 166.41015625 C103.41076815 169.48116481 105.68985711 172.68879519 108 176 C105.20869212 176.50207679 102.41699129 177.00175075 99.625 177.5 C98.8309375 177.64308594 98.036875 177.78617188 97.21875 177.93359375 C91.2265625 179 91.2265625 179 89 179 C89.01047363 179.62302002 89.02094727 180.24604004 89.03173828 180.88793945 C89.24979619 196.29414456 88.99983734 211.68614302 88.41815186 227.08187866 C88.34777184 229.02578594 88.28578676 230.97001548 88.23223877 232.91445923 C88.15375343 235.67360441 88.04379169 238.42979834 87.92578125 241.1875 C87.90783005 242.01867844 87.88987885 242.84985687 87.87138367 243.70622253 C87.66058528 247.80550842 87.53370084 249.43265723 84.63354492 252.515625 C81.38025892 254.34931174 79.67378394 254.70349054 76 254 C71.24316584 249.67400664 71.21433601 245.24034278 70.875 239.1875 C70.76889404 237.64557983 70.76889404 237.64557983 70.66064453 236.07250977 C69.38356458 216.073773 68.75625491 196.02376052 68 176 C67.01 176 66.02 176 65 176 C65.16113281 176.49242187 65.32226562 176.98484375 65.48828125 177.4921875 C67.71501631 188.40488911 67.12510679 202.39764333 61.1875 211.9375 C57.83600172 216.56109982 54.57937712 218.82539429 49 220 C47.39972928 220.13938706 45.79354296 220.21964958 44.1875 220.25 C42.97126953 220.28867187 42.97126953 220.28867187 41.73046875 220.328125 C38.07440587 219.8887698 35.33263626 218.55768977 32 217 C32.01047363 217.58378418 32.02094727 218.16756836 32.03173828 218.76904297 C32.07388108 221.47098301 32.09950805 224.17285351 32.125 226.875 C32.14175781 227.7928125 32.15851563 228.710625 32.17578125 229.65625 C32.22847378 237.1385888 32.24010226 244.88874687 27.75 251.125 C25 253 25 253 21.9375 253.5625 C18.16058431 252.83926083 17.29874353 252.09141371 15 249 C14.01365011 245.71497714 13.63342744 242.40196486 13.25 239 C13.12713623 237.98357422 13.00427246 236.96714844 12.87768555 235.91992188 C11.2385317 220.35766962 11.74561138 204.62337489 12 189 C6.555 189.99 6.555 189.99 1 191 C0.76018276 190.04036283 0.52036552 189.08072567 0.2732811 188.09200859 C-2.03144904 178.87066518 -4.33926636 169.65009907 -6.64921379 160.43006134 C-10.89050074 143.50088257 -15.12879866 126.57095626 -19.3657341 109.64068794 C-21.81009938 99.87358439 -24.25536509 90.10670781 -26.70263672 80.34033203 C-28.84762339 71.78027898 -30.99097167 63.21981769 -33.13233018 54.65885627 C-34.26341762 50.13711524 -35.3953352 45.61558566 -36.52922821 41.09454727 C-37.59174727 36.85798864 -38.65208601 32.62089047 -39.71071434 28.383358 C-40.1001301 26.82624723 -40.49035829 25.26933939 -40.88144112 23.71264648 C-41.41325645 21.59527057 -41.94219874 19.47719763 -42.47039795 17.35891724 C-42.76755077 16.17214952 -43.0647036 14.98538181 -43.37086105 13.76265144 C-44 11 -44 11 -44 9 C-42.87525269 8.75092896 -42.87525269 8.75092896 -41.7277832 8.49682617 C-38.25589203 7.72763673 -34.78419553 6.95757195 -31.3125 6.1875 C-30.13365234 5.92646484 -28.95480469 5.66542969 -27.74023438 5.39648438 C-25.97583008 5.00493164 -25.97583008 5.00493164 -24.17578125 4.60546875 C-22.99193848 4.3429834 -21.8080957 4.08049805 -20.58837891 3.81005859 C-15.95887076 2.76497028 -11.34384921 1.66121659 -6.73120117 0.54418945 C-4 0 -4 0 0 0 Z " fill="#F5CC26" transform="translate(224,126)"/>
<path d="M0 0 C3.16199328 2.22192467 5.74487372 4.90470412 8.41015625 7.69140625 C9.18129257 8.47007553 9.95242889 9.24874481 10.74693298 10.05101013 C13.2023471 12.53886788 15.63212334 15.05020324 18.0625 17.5625 C19.69959934 19.22615827 21.33825678 20.88828484 22.97851562 22.54882812 C34.77895363 34.54469624 34.77895363 34.54469624 39.57983398 40.09741211 C42.89264912 43.92566841 46.39650714 47.50900172 50 51.0625 C50.639375 51.69808838 51.27875 52.33367676 51.9375 52.98852539 C53.95588397 54.9948365 55.97749876 56.99784001 58 59 C72.91142638 73.76145514 72.91142638 73.76145514 78.03125 79.80859375 C83.40810717 85.79354786 89.2841094 91.3415968 95 97 C110.22142398 112.06833495 110.22142398 112.06833495 115.34863281 118.12597656 C118.97635043 122.24282465 122.96705914 126.02681359 126.875 129.875 C128.58300524 131.5575885 130.28885251 133.24237133 131.9921875 134.9296875 C132.73839355 135.66429199 133.48459961 136.39889648 134.25341797 137.15576172 C137.33159502 140.4060482 137.53625503 143.22765333 137.453125 147.578125 C136.58020436 152.24373534 133.3668959 154.86253482 130 158 C129.15050781 158.79792969 128.30101562 159.59585938 127.42578125 160.41796875 C125.43695538 162.25485158 123.44085871 164.07870105 121.4296875 165.890625 C117.63547315 169.31494221 113.91067428 172.81129628 110.1875 176.3125 C108.81778199 177.59903676 107.44799001 178.88549477 106.078125 180.171875 C105.39943359 180.80931641 104.72074219 181.44675781 104.02148438 182.10351562 C100.21976906 185.67014902 96.4078299 189.22582258 92.59472656 192.78027344 C89.370728 195.78581154 86.15075487 198.79547443 82.9375 201.8125 C82.2679126 202.44019287 81.5983252 203.06788574 80.90844727 203.71459961 C79.63686154 204.90679983 78.36642942 206.10023225 77.09741211 207.29516602 C74.36737215 209.85227943 71.62170554 212.33915705 68.71875 214.69921875 C65.42666479 217.48519316 63.31043206 219.86965086 62 224 C61.92089692 227.08502005 62.42354056 229.97611625 63 233 C64.47021228 240.91851176 64.47021228 240.91851176 62.75 244.875 C54.79824306 251.01953946 41.36680986 251.69086379 31.64416504 253.73123169 C17.46741987 256.7070358 3.31851199 259.72201327 -10.71533203 263.32348633 C-15.2539554 264.46448789 -19.2743773 265.30513127 -24 265 C-24 262.69 -24 260.38 -24 258 C-22.54166667 257.70833333 -21.08333333 257.41666667 -19.625 257.125 C-18.25214844 256.83689453 -18.25214844 256.83689453 -16.8515625 256.54296875 C-14 256 -14 256 -11.4609375 255.73828125 C-4.66884447 254.90813655 -1.14240285 252.05149901 3.67578125 247.2890625 C8.90821494 242.13577486 12.95848191 240.10890097 20 238.4375 C20.83998535 238.22843018 21.6799707 238.01936035 22.54541016 237.80395508 C25.02743543 237.19020499 27.51327394 236.59436327 30 236 C31.32054649 235.67281797 32.64088267 235.34478508 33.9609375 235.015625 C38.74794981 233.85447327 43.05230367 232.82907958 48 233 C47.80664062 232.39414062 47.61328125 231.78828125 47.4140625 231.1640625 C45.54867496 225.16157783 44.11840293 219.1841103 43 213 C43.66644531 212.46632813 44.33289063 211.93265625 45.01953125 211.3828125 C49.97708941 207.37516409 54.80938744 203.31834172 59.5 199 C63.05670244 195.72581577 66.67161811 192.59357567 70.4375 189.5625 C74.43223986 186.34056899 78.24554349 182.99344505 82 179.5 C86.60658118 175.21367036 91.37126996 171.20248212 96.2734375 167.25390625 C100.10310833 164.08811818 103.74948413 160.73754333 107.40625 157.375 C110.885275 154.18938675 114.43311043 151.08653482 118 148 C116.45872649 144.28731906 114.19156766 142.01884302 111.3125 139.25 C108.22909896 136.23286116 105.23858474 133.21858282 102.4375 129.9375 C99.20930142 126.1624066 95.72200736 122.70549374 92.1875 119.21875 C89.59803119 116.59228878 87.21163036 113.83023542 84.8125 111.03125 C82.7890712 108.76361428 80.66346653 106.6342305 78.5 104.5 C75.73439592 101.77170593 73.08712969 99.01483166 70.5625 96.0625 C67.84380752 92.8896408 64.97248325 89.93661618 62 87 C58.41441301 83.45767801 55.05108338 79.82444339 51.77734375 75.99609375 C49.05022777 72.93333273 46.10595363 70.09776507 43.1875 67.21875 C40.59803119 64.59228878 38.21163036 61.83023542 35.8125 59.03125 C33.7890712 56.76361428 31.66346653 54.6342305 29.5 52.5 C26.0928121 49.13885518 22.92541826 45.66298797 19.8125 42.03125 C17.7890712 39.76361428 15.66346653 37.6342305 13.5 35.5 C10.10115944 32.14708972 6.9374927 28.68440321 3.83984375 25.0546875 C0.95919656 21.83765901 -2.16063705 18.86943962 -5.27734375 15.8828125 C-7 14 -7 14 -7 12 C-10.86101066 14.14500592 -13.91138935 16.60324671 -17.125 19.625 C-22.56739674 24.6560955 -28.23013729 29.34747578 -34 34 C-36.00712736 35.65839866 -38.00426503 37.32789773 -40 39 C-43.81649931 37.67659043 -46.31006357 36.05212804 -49.3125 33.375 C-59.73626248 24.84646706 -74.88222632 16.96846148 -88.6953125 17.65625 C-103.61806056 19.88201581 -115.85261889 25.79916899 -127.26953125 35.69140625 C-130.73244928 38.61928115 -134.35192614 41.30868621 -138 44 C-149.35361293 35.35959623 -160.70524774 26.7172856 -172 18 C-175.93214301 19.58939426 -178.33020346 22.16342502 -181.25 25.1875 C-184.31628607 28.35570021 -187.38718485 31.36923485 -190.73535156 34.23754883 C-194.75629919 37.73948593 -198.53768598 41.42440072 -202.28125 45.21875 C-202.93903442 45.88032104 -203.59681885 46.54189209 -204.27453613 47.22351074 C-206.35217274 49.31322735 -208.42650627 51.40617315 -210.5 53.5 C-213.2365815 56.263417 -215.97662263 59.02333722 -218.71875 61.78125 C-219.33045044 62.40124878 -219.94215088 63.02124756 -220.5723877 63.66003418 C-224.2641322 67.37230089 -228.08921617 70.85284175 -232.0501709 74.27502441 C-235.11125645 76.98310679 -237.9758415 79.87143859 -240.84375 82.78125 C-241.45714233 83.39842896 -242.07053467 84.01560791 -242.70251465 84.65148926 C-244.63750058 86.59854038 -246.56917405 88.54882407 -248.5 90.5 C-263.0860048 105.23973433 -263.0860048 105.23973433 -268.96582031 110.24121094 C-273.28617097 113.97666535 -277.43129873 117.89532732 -281.54003906 121.86035156 C-282.60430385 122.87740313 -283.67910396 123.88353403 -284.76367188 124.87890625 C-291.05065998 130.20153846 -291.05065998 130.20153846 -294.35913086 137.33374023 C-293.86097301 139.75897526 -293.02881696 141.7494032 -292 144 C-291.44418602 145.82634172 -290.89917428 147.65599527 -290.36328125 149.48828125 C-286.00307438 162.34051007 -281.58584768 170.23354873 -270.14794922 177.59130859 C-267.0331252 179.63410635 -264.0685391 181.86458651 -261.08276367 184.09008789 C-258.67777656 185.88224575 -256.25791209 187.65276571 -253.8359375 189.421875 C-249.09575483 192.90702337 -244.44463585 196.49797856 -239.8125 200.125 C-234.90686771 203.96432902 -229.99769881 207.79478798 -225.01391602 211.5324707 C-223.71865382 212.50655065 -222.42996 213.48942994 -221.14819336 214.48120117 C-217.4591698 217.30423073 -213.72566314 219.78645999 -209.70703125 222.12109375 C-199.07364927 228.57858977 -199.07364927 228.57858977 -196 233 C-194.33842518 240.008848 -196.06493283 247.1965882 -198 254 C-202.17527977 252.69038442 -203.77367075 251.40072524 -205.9375 247.625 C-209.19283951 242.44303099 -212.50934495 239.97761219 -218.234375 237.73046875 C-222.39448115 235.95979325 -225.75757986 233.44862929 -229.3125 230.6875 C-229.99908691 230.16333496 -230.68567383 229.63916992 -231.39306641 229.09912109 C-233.60217553 227.40804433 -235.80195221 225.70542338 -238 224 C-238.72719238 223.43780762 -239.45438477 222.87561523 -240.20361328 222.29638672 C-244.71683801 218.80585332 -249.21768372 215.29969261 -253.71337891 211.78662109 C-256.74307289 209.41940985 -259.77497003 207.05504404 -262.80859375 204.69287109 C-264.30300013 203.52900824 -265.79650076 202.36398142 -267.2890625 201.19775391 C-271.08615719 198.23732134 -274.90508843 195.31351001 -278.76953125 192.44140625 C-279.54224365 191.86334229 -280.31495605 191.28527832 -281.11108398 190.68969727 C-282.57459378 189.59739151 -284.04381691 188.51268105 -285.51977539 187.43725586 C-286.18098389 186.94233643 -286.84219238 186.44741699 -287.5234375 185.9375 C-288.10013184 185.51339844 -288.67682617 185.08929688 -289.27099609 184.65234375 C-294.0734599 180.06281042 -296.08437678 174.58290007 -298.015625 168.41796875 C-298.40666412 167.19754631 -298.40666412 167.19754631 -298.80560303 165.95246887 C-299.35145284 164.23863716 -299.89240911 162.52323995 -300.42871094 160.80639648 C-301.24587863 158.20064209 -302.08672132 155.60336571 -302.9296875 153.00585938 C-303.45978857 151.33118911 -303.98848095 149.65607216 -304.515625 147.98046875 C-304.76556213 147.21453903 -305.01549927 146.44860931 -305.27301025 145.6594696 C-306.87701818 140.43308539 -307.61747383 135.47059063 -307 130 C-305.71484375 127.6171875 -305.71484375 127.6171875 -303.9375 125.875 C-303.29554688 125.22402344 -302.65359375 124.57304687 -301.9921875 123.90234375 C-301.00605469 122.96068359 -301.00605469 122.96068359 -300 122 C-299.42507813 121.40316406 -298.85015625 120.80632812 -298.2578125 120.19140625 C-295.36279495 117.19633049 -292.3458889 114.40193865 -289.1875 111.6875 C-285.97666245 108.92381971 -282.97732835 106.01380404 -280 103 C-276.47893677 99.43599698 -272.86813992 96.09695832 -269.0625 92.84375 C-265.70964151 89.84649772 -262.60106244 86.60840366 -259.44140625 83.41015625 C-256.72797273 80.73145468 -253.89222977 78.25391882 -250.99609375 75.77734375 C-248.73867374 73.76731223 -246.62264287 71.65167047 -244.5 69.5 C-241.77170593 66.73439592 -239.01483166 64.08712969 -236.0625 61.5625 C-232.8896408 58.84380752 -229.93661618 55.97248325 -227 53 C-223.45767801 49.41441301 -219.82444339 46.05108338 -215.99609375 42.77734375 C-213.73867374 40.76731223 -211.62264287 38.65167047 -209.5 36.5 C-206.77170593 33.73439592 -204.01483166 31.08712969 -201.0625 28.5625 C-197.8896408 25.84380752 -194.93661618 22.97248325 -192 20 C-178.4539603 6.30785509 -178.4539603 6.30785509 -172.76171875 5.59375 C-168.03447487 6.1042727 -165.5771757 7.75061276 -161.8125 10.5 C-161.16539062 10.94980225 -160.51828125 11.39960449 -159.8515625 11.86303711 C-157.8902108 13.22736144 -155.94368414 14.61065358 -154 16 C-151.84309884 17.53633178 -149.67671111 19.05386123 -147.5 20.5625 C-146.6028125 21.20316406 -145.705625 21.84382813 -144.78125 22.50390625 C-141.32480921 24.36319954 -138.93480506 24.9365354 -135 25 C-132.26835916 24.11196393 -129.86872395 22.78690138 -127.375 21.375 C-125.96589373 20.62576788 -124.55439591 19.88101751 -123.140625 19.140625 C-122.44388672 18.77388672 -121.74714844 18.40714844 -121.02929688 18.02929688 C-102.68095765 8.72268015 -80.30652553 6.48259069 -60.61694336 12.78808594 C-55.54288102 14.58224335 -51.04913113 17.11898187 -46.41796875 19.81640625 C-42.44466826 21.76133363 -39.27069747 22.03893107 -35 21 C-28.33834489 17.03230211 -22.83385521 11.21224735 -17.29296875 5.859375 C-16.66519531 5.26125 -16.03742188 4.663125 -15.390625 4.046875 C-14.83407227 3.50901367 -14.27751953 2.97115234 -13.70410156 2.41699219 C-9.36521497 -1.19087282 -5.42677506 -1.92115116 0 0 Z " fill="#FDFDFD" transform="translate(337,47)"/>
<path d="M0 0 C1.8871405 3.37773026 2.8052607 6.72812292 3.73887634 10.4744873 C3.98327771 11.44696624 3.98327771 11.44696624 4.23261648 12.43909121 C4.77666175 14.60869184 5.31396868 16.77990406 5.85131836 18.95117188 C6.2404251 20.50872738 6.6299466 22.06617931 7.01985168 23.62353516 C8.07783775 27.85433054 9.13000638 32.08655366 10.18115687 36.31905174 C11.28411064 40.75590144 12.39240813 45.19141584 13.50013733 49.6270752 C15.60043519 58.04070946 17.69593501 66.45553103 19.7897163 74.87078905 C22.16123965 84.40137319 24.53801094 93.93064586 26.91527355 103.45979977 C30.9844718 119.77136848 35.04987297 136.08387946 39.11050415 152.39758301 C39.28219687 153.08691453 39.45388958 153.77624605 39.63078511 154.48646641 C40.11846153 156.44662569 40.60423675 158.40725767 41.08994865 160.36790466 C41.68471183 162.74165706 42.29182598 165.11235801 42.91281319 167.47938538 C43.18868704 168.53778122 43.46456089 169.59617706 43.74879456 170.68664551 C44.11257123 172.05388134 44.11257123 172.05388134 44.48369694 173.4487381 C45.00753561 176.03723647 45.02955214 178.36808665 45 181 C45.78655453 182.96479227 45.78655453 182.96479227 46.9375 184.6875 C51.62609057 192.21766061 51.17318198 202.56313952 49.31640625 211.16796875 C46.75815638 218.01473707 42.95859915 223.33242594 36.5625 226.9375 C31.32747629 228.49882286 27.84178785 228.92089392 22.875 226.4375 C15.42769385 220.12347957 12.47693714 212.7814088 11.6796875 203.1171875 C11.29713634 193.6735118 12.27278558 186.49177123 18.4375 179.0625 C20.92288536 177.06206788 22.97164881 175.95176752 26 175 C26 174.34 26 173.68 26 173 C25.40832031 172.87882813 24.81664062 172.75765625 24.20703125 172.6328125 C23.02173828 172.38144531 23.02173828 172.38144531 21.8125 172.125 C20.64654297 171.88136719 20.64654297 171.88136719 19.45703125 171.6328125 C16.85887091 170.96365197 14.48043616 170.0152987 12 169 C9.81021715 144.027442 7.7983369 119.06218575 6.32559204 94.03634644 C5.34726962 77.49820044 4.04180747 61.00300826 2.60900879 44.49853516 C1.32599632 29.66539525 0.30764937 14.89022964 0 0 Z " fill="#0D485B" transform="translate(180,137)"/>
<path d="M0 0 C3.89570037 3.84501282 7.65560777 7.79712337 11.375 11.8125 C11.9515332 12.43415039 12.52806641 13.05580078 13.12207031 13.69628906 C16.58418408 17.43990728 19.99589093 21.21801226 23.328125 25.078125 C25.35758073 27.41105074 27.427647 29.70511245 29.5 32 C32.17048344 34.95869751 34.82298058 37.92926472 37.4375 40.9375 C40.24822525 44.16559512 43.115799 47.33738443 46 50.5 C49.45575413 54.28934126 52.8652289 58.11083698 56.23046875 61.98046875 C59.77576954 66.02665089 63.39458999 70.00743187 67 74 C71.77033937 79.28259058 76.51894407 84.57934135 81.1953125 89.9453125 C84.75638173 93.99969003 88.3834804 97.9951293 92 102 C96.76603516 107.27782418 101.5160289 112.5649635 106.1796875 117.93359375 C109.0010068 121.13633604 111.89626887 124.27194511 114.7890625 127.41015625 C117.41076815 130.48116481 119.68985711 133.68879519 122 137 C119.20869212 137.50207679 116.41699129 138.00175075 113.625 138.5 C112.8309375 138.64308594 112.036875 138.78617188 111.21875 138.93359375 C105.2265625 140 105.2265625 140 103 140 C103.01047363 140.62302002 103.02094727 141.24604004 103.03173828 141.88793945 C103.24979619 157.29414456 102.99983734 172.68614302 102.41815186 188.08187866 C102.34777184 190.02578594 102.28578676 191.97001548 102.23223877 193.91445923 C102.15375343 196.67360441 102.04379169 199.42979834 101.92578125 202.1875 C101.89885445 203.43426765 101.89885445 203.43426765 101.87138367 204.70622253 C101.66058528 208.80550842 101.53370084 210.43265723 98.63354492 213.515625 C95.38025892 215.34931174 93.67378394 215.70349054 90 215 C85.28982249 210.69105983 85.18427988 206.33037023 84.8125 200.3125 C84.72758301 199.27085693 84.64266602 198.22921387 84.55517578 197.15600586 C83.99645496 189.11983024 84.0405429 181.18797993 84.22265625 173.140625 C84.91316617 140.02612505 84.91316617 140.02612505 69.19873047 111.77734375 C65.49239401 107.09565559 62.51936819 101.9793442 59.4375 96.875 C58.20300385 94.89477072 56.96473329 92.91688933 55.72265625 90.94140625 C47.2470813 77.41484376 38.77440353 63.88653607 30.375 50.3125 C29.84777344 49.46051025 29.32054687 48.60852051 28.77734375 47.73071289 C26.0763257 43.36354166 23.37977032 38.99366307 20.6875 34.62109375 C19.58363896 32.83054071 18.47947488 31.04017446 17.375 29.25 C16.84285889 28.38697266 16.31071777 27.52394531 15.76245117 26.63476562 C11.6989314 20.06942178 7.52677912 13.57961355 3.24951172 7.15136719 C0 2.21425701 0 2.21425701 0 0 Z " fill="#0C4658" transform="translate(210,165)"/>
<path d="M0 0 C1.29550781 -0.02126953 1.29550781 -0.02126953 2.6171875 -0.04296875 C5.35457931 0.20859841 6.89915391 0.57005184 9.125 2.1875 C9.953125 4.3515625 9.953125 4.3515625 10.375 6.8125 C10.52453125 7.62976563 10.6740625 8.44703125 10.828125 9.2890625 C10.97507812 10.22878906 10.97507812 10.22878906 11.125 11.1875 C12.07375 10.383125 13.0225 9.57875 14 8.75 C18.61859572 4.83423406 22.13333833 4.84873258 28.13671875 4.90625 C32.12938764 5.2820306 34.22808459 6.43914435 37.125 9.1875 C41.47908617 15.09661695 42.46991811 21.23659415 42.375 28.4375 C42.36267334 29.56575195 42.36267334 29.56575195 42.35009766 30.71679688 C42.14957837 40.72982465 40.82896622 48.35792958 34.125 56.1875 C29.79347163 59.48771209 25.68167915 60.3360352 20.3125 60.4375 C19.50167969 60.46328125 18.69085938 60.4890625 17.85546875 60.515625 C14.19940587 60.0762698 11.45763626 58.74518977 8.125 57.1875 C8.13547363 57.77128418 8.14594727 58.35506836 8.15673828 58.95654297 C8.19888108 61.65848301 8.22450805 64.36035351 8.25 67.0625 C8.26675781 67.9803125 8.28351563 68.898125 8.30078125 69.84375 C8.35347378 77.3260888 8.36510226 85.07624687 3.875 91.3125 C1.125 93.1875 1.125 93.1875 -1.9375 93.75 C-5.72768937 93.02421906 -6.58028447 92.30400326 -8.875 89.1875 C-9.83948171 85.77729719 -10.21421468 82.33792136 -10.59375 78.8203125 C-10.77556824 77.24263596 -10.77556824 77.24263596 -10.96105957 75.63308716 C-12.24201702 63.41960951 -12.39789118 51.19689108 -12.37597656 38.92626953 C-12.37498509 35.00352691 -12.41720872 31.08262782 -12.4609375 27.16015625 C-12.46613275 24.64583735 -12.46883289 22.13151176 -12.46875 19.6171875 C-12.48514526 18.45476532 -12.50154053 17.29234314 -12.51843262 16.09469604 C-12.44174522 7.16717041 -12.44174522 7.16717041 -9.46289062 3.47314453 C-6.03774282 0.44802814 -4.46628683 0.03313269 0 0 Z " fill="#050503" transform="translate(247.875,285.8125)"/>
<path d="M0 0 C0 3.95910169 -1.30536608 4.8471958 -3.875 7.8125 C-7.33324799 11.9269008 -10.59437051 16.10182758 -13.6875 20.5 C-17.65917975 26.13669083 -21.71092161 31.70705313 -25.8125 37.25 C-30.41315623 43.47306174 -34.97928585 49.71862298 -39.5 56 C-45.68076418 64.58376866 -51.9478594 73.10201618 -58.23388672 81.60888672 C-61.15956094 85.56991151 -64.07957278 89.53510594 -67 93.5 C-70.50888924 98.26381471 -74.01897803 103.02671798 -77.53515625 107.78515625 C-87.13208825 120.77898601 -96.61901456 133.84940757 -106 147 C-109.58690496 143.41309504 -110.73994488 138.23026727 -112.47827148 133.53320312 C-113.18392656 131.63461446 -113.90684294 129.74321237 -114.63085938 127.8515625 C-115.07623047 126.6553125 -115.52160156 125.4590625 -115.98046875 124.2265625 C-116.59764771 122.58034912 -116.59764771 122.58034912 -117.22729492 120.90087891 C-118.03697936 117.86117261 -118.02363855 116.87733413 -117 114 C-115.83262634 112.46513367 -115.83262634 112.46513367 -114.35131836 110.99487305 C-113.79661362 110.43716721 -113.24190887 109.87946136 -112.6703949 109.30485535 C-112.06631302 108.71312027 -111.46223114 108.12138519 -110.83984375 107.51171875 C-109.9048983 106.57958305 -109.9048983 106.57958305 -108.95106506 105.62861633 C-107.62882752 104.31310086 -106.30299728 103.00118808 -104.97387695 101.69262695 C-102.96254611 99.71216175 -100.96180606 97.72150323 -98.96289062 95.72851562 C-88.49740608 85.32794144 -88.49740608 85.32794144 -83.97265625 81.48828125 C-77.42942706 75.92278611 -71.53718413 69.60081318 -65.5 63.5 C-62.95093376 60.92406781 -60.39838646 58.35165686 -57.84375 55.78125 C-57.27579712 55.20499878 -56.70784424 54.62874756 -56.12268066 54.03503418 C-53.18347735 51.07831145 -50.18257978 48.25340218 -47.02734375 45.52734375 C-43.07792453 42.1118411 -39.3845939 38.49682481 -35.71875 34.78125 C-35.06096558 34.11967896 -34.40318115 33.45810791 -33.72546387 32.77648926 C-31.64782726 30.68677265 -29.57349373 28.59382685 -27.5 26.5 C-24.7634185 23.736583 -22.02337737 20.97666278 -19.28125 18.21875 C-18.66954956 17.59875122 -18.05784912 16.97875244 -17.4276123 16.33996582 C-13.66828464 12.55974026 -9.78305547 8.98891707 -5.73815918 5.51550293 C-3.73084992 3.76532774 -1.84408046 1.92091714 0 0 Z " fill="#0C465B" transform="translate(160,67)"/>
<path d="M0 0 C7.36124916 5.39188977 13.91528253 11.74230498 20.4375 18.1015625 C21.25009277 18.88321777 22.06268555 19.66487305 22.89990234 20.47021484 C23.64320801 21.21352051 24.38651367 21.95682617 25.15234375 22.72265625 C25.82257568 23.38579834 26.49280762 24.04894043 27.18334961 24.73217773 C28.5 26.6640625 28.5 26.6640625 28.20922852 28.91040039 C27.8581604 29.77846313 27.8581604 29.77846313 27.5 30.6640625 C25.74853516 31.38647461 25.74853516 31.38647461 23.5 31.6640625 C21.55224609 30.25219727 21.55224609 30.25219727 19.5234375 28.10546875 C18.77441162 27.32993652 18.02538574 26.5544043 17.25366211 25.75537109 C16.46870361 24.92086426 15.68374512 24.08635742 14.875 23.2265625 C5.79078112 13.76164081 5.79078112 13.76164081 -4.5 5.6640625 C-4.83 5.6640625 -5.16 5.6640625 -5.5 5.6640625 C-5.05527344 6.33953125 -4.61054688 7.015 -4.15234375 7.7109375 C-3.58644531 8.60296875 -3.02054687 9.495 -2.4375 10.4140625 C-1.86902344 11.29578125 -1.30054688 12.1775 -0.71484375 13.0859375 C0.5 15.6640625 0.5 15.6640625 0.43359375 17.8671875 C-0.7829082 20.208572 -2.0839939 20.72883433 -4.5 21.6640625 C-5.01949219 20.78363281 -5.53898437 19.90320313 -6.07421875 18.99609375 C-6.77826291 17.82268682 -7.48271168 16.6495226 -8.1875 15.4765625 C-8.52716797 14.89841797 -8.86683594 14.32027344 -9.21679688 13.72460938 C-11.58373954 9.80919954 -14.14780275 6.78142982 -17.5 3.6640625 C-17.005 4.7778125 -17.005 4.7778125 -16.5 5.9140625 C-13.86228858 15.80548033 -15.3182891 26.36604628 -19.5 35.6640625 C-23.58441558 39.6640625 -23.58441558 39.6640625 -27.5 39.6640625 C-25.71245902 31.27783299 -25.71245902 31.27783299 -24.375 27.4140625 C-22.41759958 19.02520357 -22.38816194 10.33949355 -26.5 2.6640625 C-29.60835163 -0.64322364 -32.73027384 -3.13930126 -37.3125 -3.6484375 C-41.21092841 -3.26623864 -42.62482116 -1.89165202 -45.5 0.6640625 C-46.16 0.6640625 -46.82 0.6640625 -47.5 0.6640625 C-47.933125 1.7778125 -47.933125 1.7778125 -48.375 2.9140625 C-49.5 5.6640625 -49.5 5.6640625 -50.5390625 7.5078125 C-53.64015648 14.46636484 -51.64391717 22.5083924 -49.125 29.3515625 C-43.43458577 43.86211878 -34.55878062 58.60528188 -23.5 69.6640625 C-23.375 72.2890625 -23.375 72.2890625 -23.5 74.6640625 C-25.15 74.9940625 -26.8 75.3240625 -28.5 75.6640625 C-34.22353571 68.62464848 -39.7717457 61.5482942 -44.6875 53.9140625 C-45.07349365 53.31835449 -45.4594873 52.72264648 -45.85717773 52.10888672 C-48.5 47.92538119 -48.5 47.92538119 -48.5 45.6640625 C-51.47 46.1590625 -51.47 46.1590625 -54.5 46.6640625 C-53.84 52.6040625 -53.18 58.5440625 -52.5 64.6640625 C-54.48 65.9840625 -56.46 67.3040625 -58.5 68.6640625 C-58.81424786 66.97688711 -59.12630155 65.28930301 -59.4375 63.6015625 C-59.61152344 62.66183594 -59.78554687 61.72210938 -59.96484375 60.75390625 C-61.37498949 52.61211586 -61.75156083 44.67764301 -61.79516602 36.43359375 C-61.80661335 34.93479924 -61.82694863 33.43604313 -61.85668945 31.9375 C-62.0748187 20.90186631 -61.54786441 9.75979132 -56.5 -0.3359375 C-65.45632562 5.20618598 -72.96348742 11.36763273 -80.5 18.6640625 C-81.32757813 19.45167969 -82.15515625 20.23929688 -83.0078125 21.05078125 C-87.48594796 25.39988568 -91.29396759 29.83696917 -94.796875 35.01171875 C-96.5 36.6640625 -96.5 36.6640625 -99.203125 36.91015625 C-99.96109375 36.82894531 -100.7190625 36.74773437 -101.5 36.6640625 C-102.07678511 32.40226144 -101.73321709 30.97162226 -99.0859375 27.48046875 C-98.0302297 26.38161304 -96.95907904 25.29743853 -95.875 24.2265625 C-94.75811022 23.07779856 -93.64221191 21.92806976 -92.52734375 20.77734375 C-91.9947998 20.2354541 -91.46225586 19.69356445 -90.91357422 19.13525391 C-89.31533705 17.4718727 -87.86616357 15.72426827 -86.4375 13.9140625 C-62.92213971 -13.94577784 -29.87348415 -20.61475019 0 0 Z " fill="#10485C" transform="translate(285.5,77.3359375)"/>
<path d="M0 0 C5.62666443 2.71285606 8.60154741 6.90232111 12 12 C15.4352212 21.97907567 15.66566175 34.32314281 11.046875 43.99609375 C8.47727273 48.76136364 8.47727273 48.76136364 6 50 C3.0625 50.375 3.0625 50.375 0 50 C-3.0136115 46.18290616 -3.38581353 43.12405784 -3.44140625 38.34375 C-3.46783203 37.07402344 -3.49425781 35.80429687 -3.52148438 34.49609375 C-3.53501953 33.17738281 -3.54855469 31.85867188 -3.5625 30.5 C-3.59700495 27.88529127 -3.63964862 25.27067412 -3.69140625 22.65625 C-3.70373291 21.49931641 -3.71605957 20.34238281 -3.72875977 19.15039062 C-3.99675014 16.03774629 -4.67727917 13.81074061 -6 11 C-9.63435292 11.24779679 -11.49701597 11.52575792 -14.1875 14.0625 C-19.54601966 22.74699737 -20.45030897 31.24008533 -18.30859375 41.22265625 C-14.83354444 52.72376088 -8.94128394 58.47932124 0.70629883 65.14477539 C8.51926715 70.56652285 8.51926715 70.56652285 9.50390625 75.55078125 C9.60699607 80.40974801 9.57668694 84.06821206 6.5 88 C1.91396045 92.47863816 -3.18396267 94.08962875 -9.5 94.4375 C-15.61104856 94.20530126 -20.0707331 91.78457188 -24.5 87.6875 C-26.41220225 84.26147097 -26.37153564 81.86397063 -26 78 C-25 77 -25 77 -21.75 76.625 C-17.08428237 77.09157176 -15.93950709 78.47259149 -13 82 C-10.39295102 84.60704898 -8.52661759 84.23905333 -4.97265625 84.265625 C-2.68047674 84.10382514 -2.68047674 84.10382514 0 82 C-0.07377513 79.56634106 -0.07377513 79.56634106 -1 77 C-3.40504032 75.47131743 -3.40504032 75.47131743 -6.4375 74.5 C-7.52289063 74.08363281 -8.60828125 73.66726563 -9.7265625 73.23828125 C-11.34691406 72.62533203 -11.34691406 72.62533203 -13 72 C-21.55978244 68.46758274 -27.93979735 63.95488285 -31.875 55.3125 C-36.38626498 42.02933091 -34.71099702 28.6868134 -28.6796875 16.28515625 C-22.09029037 4.31261774 -13.7325346 -1.49106609 0 0 Z " fill="#050505" transform="translate(122,285)"/>
<path d="M0 0 C4.53773825 0.8103104 5.7296699 1.95653034 8.5 5.625 C9.23639128 8.92212304 9.22151181 12.15123475 9.20703125 15.51953125 C9.22971321 16.94056404 9.22971321 16.94056404 9.25285339 18.39030457 C9.29572747 21.40627856 9.3045682 24.42125163 9.3125 27.4375 C9.3356445 29.48635473 9.36100974 31.53518566 9.38867188 33.58398438 C9.45152159 38.59774472 9.48385911 43.6108805 9.5 48.625 C10.2748877 48.13821777 11.04977539 47.65143555 11.84814453 47.14990234 C16.01681851 44.75278048 19.81811831 45.10397555 24.5 45.625 C30.41114052 47.29982315 34.36415044 50.38240321 37.5 55.625 C41.14204458 66.00791352 40.70292644 79.10346963 37.5 89.625 C35.25 92.875 35.25 92.875 32.5 94.625 C29.36014221 95.12737725 27.54296422 95.29666712 24.83422852 93.55224609 C22.81251445 90.63195134 23.16972019 87.70536944 23.27734375 84.2890625 C23.29082603 83.21451309 23.29082603 83.21451309 23.30458069 82.11825562 C23.33459592 79.82834387 23.38435128 77.53948332 23.4375 75.25 C23.48542869 72.96772754 23.52879168 70.68573686 23.55970764 68.40316772 C23.57935807 66.98389941 23.60886536 65.56472302 23.64964294 64.14590454 C23.70972058 60.17118268 23.30202739 57.18409775 21.5 53.625 C20.28410016 52.19344101 20.28410016 52.19344101 16.6875 52.3125 C13.77247772 52.37518865 12.63626033 52.54464135 10.0625 54.0625 C5.39423909 61.7184479 7.16936392 74.58681147 6.98242188 83.29101562 C6.94826172 84.46212891 6.91410156 85.63324219 6.87890625 86.83984375 C6.8538501 87.90323975 6.82879395 88.96663574 6.80297852 90.06225586 C6.5 92.625 6.5 92.625 4.5 94.625 C2.625 94.92578125 2.625 94.92578125 0.5 94.9375 C-0.20125 94.95425781 -0.9025 94.97101563 -1.625 94.98828125 C-2.24375 94.86839844 -2.8625 94.74851562 -3.5 94.625 C-6.01226045 90.85660933 -6.15561952 87.45327107 -6.5625 83.0625 C-6.64048828 82.32064453 -6.71847656 81.57878906 -6.79882812 80.81445312 C-8.38957495 64.78866487 -8.76097407 48.70072379 -8.85009766 32.60668945 C-8.86687596 30.38718339 -8.8944408 28.16773581 -8.93212891 25.94848633 C-8.9866875 22.69845476 -9.00870792 19.44964512 -9.0234375 16.19921875 C-9.04610687 15.20967697 -9.06877625 14.22013519 -9.09213257 13.2006073 C-9.07773186 8.53917899 -9.02960082 6.33949734 -6.18603516 2.50317383 C-3.5 0.625 -3.5 0.625 0 0 Z " fill="#050505" transform="translate(148.5,277.375)"/>
<path d="M0 0 C3 1.75 3 1.75 5 4 C5 5.32 5 6.64 5 8 C5.928125 7.505 6.85625 7.01 7.8125 6.5 C13.78773087 3.95476981 20.85195904 3.89724265 26.9375 6.1875 C32.71676617 9.60788202 35.10882946 14.29621003 37.23828125 20.5078125 C40.08747835 33.57028534 38.85200389 48.3813847 32 60 C30 62 30 62 27 62.25 C24 62 24 62 22 60 C21.76953125 57.71484375 21.76953125 57.71484375 21.8125 54.9375 C21.81894531 54.03902344 21.82539063 53.14054687 21.83203125 52.21484375 C21.96263284 49.71519007 22.1910429 47.30756281 22.49609375 44.828125 C23.11484771 39.48850753 23.22074817 34.18386749 23.25 28.8125 C23.270625 27.85408203 23.29125 26.89566406 23.3125 25.90820312 C23.34244621 20.49168285 23.03914688 16.68918875 20 12 C18.84983746 10.63777693 18.84983746 10.63777693 15.75 10.6875 C11.44249452 11.04645879 10.00888412 11.99111588 7 15 C5.67113845 17.6577231 5.71619423 19.89332769 5.53515625 22.86328125 C5.45716797 24.06146484 5.37917969 25.25964844 5.29882812 26.49414062 C5.14394023 28.99666823 4.99025088 31.49927036 4.83789062 34.00195312 C4.44106522 40.07047828 3.96835367 46.1288621 3.24609375 52.16796875 C3.12806396 53.19559326 3.01003418 54.22321777 2.88842773 55.28198242 C1.72272007 58.84829828 0.15944112 60.05377961 -3 62 C-6.46210122 61.9403086 -8.88861283 61.86846779 -11.66889954 59.69587708 C-13.2645593 57.66294051 -13.47174419 56.48728654 -13.67260742 53.9284668 C-13.73684906 53.12992279 -13.8010907 52.33137878 -13.86727905 51.50863647 C-14.0853894 47.38600486 -14.2025491 43.27272743 -14.23828125 39.14453125 C-14.246353 38.23926193 -14.25442474 37.33399261 -14.26274109 36.40129089 C-14.27647137 34.50297909 -14.2872421 32.60464375 -14.29516602 30.70629883 C-14.30675462 28.77165453 -14.32731312 26.83704386 -14.35668945 24.90258789 C-14.39933625 22.08718456 -14.4155216 19.27271724 -14.42578125 16.45703125 C-14.44328934 15.59753372 -14.46079742 14.73803619 -14.47883606 13.85249329 C-14.45874504 8.28050249 -13.63517478 5.28142807 -10 1 C-6.79288219 -0.60355891 -3.47933157 -0.48564284 0 0 Z " fill="#040404" transform="translate(377,309)"/>
<path d="M0 0 C3.91202779 0.54905653 6.29652172 1.27319663 9.5625 3.5 C12.41820692 8.05792891 12.97599616 11.84329136 12.82421875 17.09765625 C12.80653694 18.29238304 12.80653694 18.29238304 12.78849792 19.51124573 C12.73407108 22.50829946 12.64912476 25.50370249 12.5625 28.5 C12.51274017 30.42691681 12.51274017 30.42691681 12.4619751 32.39276123 C12.2427505 40.80497702 11.96968218 49.21422266 11.64804268 57.62314415 C11.49165201 61.71759995 11.34503881 65.81188165 11.22143555 69.9074707 C11.10007736 73.92442373 10.95525529 77.93988036 10.79343224 81.95540047 C10.73619308 83.47294506 10.68718775 84.99082434 10.64673805 86.50890923 C10.58889396 88.61745216 10.50089597 90.72270175 10.40551758 92.82983398 C10.36332596 94.02495102 10.32113434 95.22006805 10.27766418 96.45140076 C9.5625 99.5 9.5625 99.5 7.20121765 101.88172913 C3.9491445 103.87615822 2.30958218 104.21752638 -1.4375 103.5 C-6.14349152 99.19488924 -6.26120644 94.82826729 -6.625 88.8125 C-6.69831543 87.77665771 -6.77163086 86.74081543 -6.84716797 85.67358398 C-8.01170493 66.90742093 -8.15460902 48.04746065 -8.35644531 29.25048828 C-8.39754028 25.54209392 -8.49087886 21.84195849 -8.63574219 18.13623047 C-8.6816472 16.51660175 -8.72754603 14.89697285 -8.7734375 13.27734375 C-8.81393219 12.55511124 -8.85442688 11.83287872 -8.89614868 11.08876038 C-8.97804748 7.21246056 -8.54924259 5.6431739 -6.13134766 2.54516602 C-3.4375 0.5 -3.4375 0.5 0 0 Z " fill="#020202" transform="translate(301.4375,276.5)"/>
<path d="M0 0 C4.74679852 1.9457951 7.91020263 3.77611897 10.61328125 8.28125 C10.98324219 8.87292969 11.35320312 9.46460938 11.734375 10.07421875 C16.01670179 17.97207403 15.96171404 27.10827995 13.73046875 35.66796875 C10.91525494 43.09752307 7.06974616 48.65307839 0.17578125 52.71875 C-5.1580002 53.88958007 -9.38573145 54.30597509 -14.07421875 51.34375 C-19.05718066 47.35281941 -22.08003718 41.46611611 -23.38671875 35.28125 C-23.65464802 31.86801586 -23.66371396 28.45391191 -23.69921875 25.03125 C-23.72822266 24.11472656 -23.75722656 23.19820313 -23.78710938 22.25390625 C-23.85439316 14.99760871 -22.44654591 9.68320974 -17.53515625 4.22265625 C-16.94992187 3.76761719 -16.3646875 3.31257813 -15.76171875 2.84375 C-15.17132813 2.37066406 -14.5809375 1.89757812 -13.97265625 1.41015625 C-9.65518409 -1.66311827 -4.92390733 -1.48281334 0 0 Z " fill="#070707" transform="translate(342.38671875,311.71875)"/>
<path d="M0 0 C4.29826681 3.38543901 7.25217582 7.22656548 8.89453125 12.4921875 C10.23429686 24.16559781 9.4240832 34.90273537 2.08203125 44.4296875 C-1.84851654 48.61700475 -5.99198429 50.23263678 -11.66796875 50.9296875 C-17.15292773 50.23160181 -20.4336372 47.60897032 -23.79296875 43.3671875 C-29.70482213 34.30870248 -30.07812368 23.97524621 -29.10546875 13.4921875 C-27.26021698 6.25007036 -23.30335252 1.62411001 -17.10546875 -2.5078125 C-10.29934059 -4.3473066 -5.81350712 -3.93495511 0 0 Z " fill="#040404" transform="translate(221.10546875,314.5078125)"/>
<path d="M0 0 C5.26071556 2.8407864 8.90269043 6.16759444 11.08203125 11.79296875 C14.31426882 23.08516895 11.12731048 34.74537903 6 45 C3.63671875 45.88671875 3.63671875 45.88671875 0.6875 46.6875 C-0.27800781 46.95949219 -1.24351562 47.23148438 -2.23828125 47.51171875 C-6.49329457 48.26401955 -6.49329457 48.26401955 -9 47 C-11.48886116 43.25149517 -13.19912408 39.11628782 -15 35 C-15.34675781 34.21625 -15.69351563 33.4325 -16.05078125 32.625 C-18.67236744 25.86602896 -19.47774703 18.35442791 -17.12109375 11.41015625 C-13.69547131 4.6154398 -8.21838626 -1.57373354 0 0 Z " fill="#FCFDFD" transform="translate(251,73)"/>
<path d="M0 0 C10.09979424 6.73319616 10.09979424 6.73319616 13.52734375 9.4296875 C14.25630859 9.996875 14.98527344 10.5640625 15.73632812 11.1484375 C17.23208643 12.32168536 18.72684314 13.49621102 20.22070312 14.671875 C20.94064453 15.23132813 21.66058594 15.79078125 22.40234375 16.3671875 C23.04679443 16.87362793 23.69124512 17.38006836 24.35522461 17.90185547 C25.94761054 19.18508994 25.94761054 19.18508994 28 19 C29.58969247 16.98208664 29.58969247 16.98208664 31.125 14.5 C31.66382813 13.6646875 32.20265625 12.829375 32.7578125 11.96875 C33.16773438 11.3190625 33.57765625 10.669375 34 10 C34.495 11.485 34.495 11.485 35 13 C37.45896445 13.99632256 37.45896445 13.99632256 40.375 14.625 C41.35210937 14.86476563 42.32921875 15.10453125 43.3359375 15.3515625 C44.21507812 15.56554687 45.09421875 15.77953125 46 16 C46.99 16.33 47.98 16.66 49 17 C49 17.66 49 18.32 49 19 C47.3203125 20.18359375 47.3203125 20.18359375 45.125 21.4375 C42.08869645 23.17330794 41.00897332 23.98654002 39 27 C38.0925 27.268125 37.185 27.53625 36.25 27.8125 C32.50425623 29.18113715 30.98455598 30.84913728 28.4921875 33.85546875 C27 35 27 35 25.015625 34.7734375 C23 34 23 34 19.875 32.4375 C15.39922965 30.48356154 10.79971215 30.24332204 6 31 C3.03 32.485 3.03 32.485 0 34 C0 22.78 0 11.56 0 0 Z " fill="#FBFCFC" transform="translate(157,293)"/>
<path d="M0 0 C1.9375 0.25 1.9375 0.25 4 1 C10.34670804 10.52006206 7.1100453 25.09809928 5.046875 35.7578125 C3.90133567 39.30556491 2.63456298 41.37519466 0 44 C-3.61878317 44.51696902 -5.91289859 44.55877231 -9.18823242 42.87524414 C-12.49793831 39.44958036 -11.49612986 35.0818323 -11.43554688 30.56054688 C-11.41355225 29.88241943 -11.39155762 29.20429199 -11.36889648 28.50561523 C-11.31329772 26.46675309 -11.32569974 24.43586711 -11.34179688 22.39648438 C-11.11032601 13.5350807 -9.46540961 8.91255399 -3.02026367 2.74243164 C-2.02023315 1.87992798 -2.02023315 1.87992798 -1 1 C-0.67 0.67 -0.34 0.34 0 0 Z " fill="#FEFEFD" transform="translate(268,296)"/>
<path d="M0 0 C2.6875 0.375 2.6875 0.375 4.9375 2.6875 C9.14558819 9.14992116 8.37793938 17.89324131 7.6875 25.375 C6.53844165 30.24896786 5.27875105 34.78374895 1.6875 38.375 C-0.25 38.3125 -0.25 38.3125 -2.3125 37.375 C-7.93396585 29.67150976 -6.97218545 19.48494198 -6.3125 10.375 C-4.35722334 0.70657676 -4.35722334 0.70657676 0 0 Z " fill="#E5E6E0" transform="translate(208.3125,319.625)"/>
<path d="M0 0 C2.875 0.0625 2.875 0.0625 6 1 C9.29365501 5.92128871 9.43147205 10.17385944 9.3125 15.875 C9.31572266 16.63941406 9.31894531 17.40382813 9.32226562 18.19140625 C9.25475243 25.42145617 8.18405526 31.91410145 4 38 C1.6875 38 1.6875 38 -1 37 C-4.02243684 30.74692997 -4.46332262 25.31194354 -4.375 18.4375 C-4.38660156 17.53064453 -4.39820313 16.62378906 -4.41015625 15.68945312 C-4.38627263 10.20020089 -4.15420858 4.15420858 0 0 Z " fill="#ECEDE6" transform="translate(333,320)"/>
<path d="M0 0 C2.70740662 2.70740662 3.1010554 5.2626766 4.125 8.9375 C4.47820312 10.18402344 4.83140625 11.43054688 5.1953125 12.71484375 C6 16 6 16 6 19 C1.19659243 20.16649846 -3.60887522 21.32392257 -8.41650391 22.47290039 C-10.05252325 22.8652526 -11.68794597 23.26010117 -13.32275391 23.6574707 C-15.66938255 24.22740689 -18.01799321 24.78840295 -20.3671875 25.34765625 C-21.10057343 25.52780777 -21.83395935 25.70795929 -22.58956909 25.89356995 C-27.77225659 27.11387171 -27.77225659 27.11387171 -30 26 C-29.16339844 25.28457031 -28.32679688 24.56914062 -27.46484375 23.83203125 C-20.85676101 18.17686222 -14.26142956 12.50735294 -7.6875 6.8125 C-7.03579834 6.24829346 -6.38409668 5.68408691 -5.71264648 5.1027832 C-2.7949288 2.61824636 -2.7949288 2.61824636 0 0 Z " fill="#F7CE2B" transform="translate(379,261)"/>
<path d="M0 0 C-0.26554687 1.06476563 -0.53109375 2.12953125 -0.8046875 3.2265625 C-3.0647251 12.45576142 -4.86249758 21.55573645 -6 31 C-9.74236667 29.31048495 -12.93507609 27.03512584 -16.25 24.625 C-16.80429688 24.23828125 -17.35859375 23.8515625 -17.9296875 23.453125 C-19.515625 22.2890625 -19.515625 22.2890625 -22 20 C-22 16 -22 16 -19.91015625 13.6328125 C-18.97042969 12.80523437 -18.03070313 11.97765625 -17.0625 11.125 C-16.56758057 10.68881348 -16.07266113 10.25262695 -15.56274414 9.80322266 C-4.23695506 0 -4.23695506 0 0 0 Z " fill="#F9FBFC" transform="translate(229,77)"/>
<path d="M0 0 C-0.4376267 6.65494402 -1.06213305 13.06213305 -6 18 C-9.53865908 18.32765362 -12.0413915 18.52519508 -15.203125 16.79296875 C-17 15 -17 15 -17.4609375 12.625 C-17.43257813 11.75875 -17.40421875 10.8925 -17.375 10 C-17.36210937 9.13375 -17.34921875 8.2675 -17.3359375 7.375 C-17 5 -17 5 -15 2 C-10.20952599 0.20836272 -5.08178966 -0.2606046 0 0 Z " fill="#EAEBE4" transform="translate(274,322)"/>
<path d="M0 0 C4.39416489 3.12751949 7.02821388 6.5238034 9.875 11 C10.29007812 11.61617187 10.70515625 12.23234375 11.1328125 12.8671875 C14.06388204 17.42011551 14.06388204 17.42011551 13.77612305 20.03222656 C12.45530731 23.38100757 9.59391676 25.43664049 6.9375 27.75 C6.36966797 28.25660156 5.80183594 28.76320313 5.21679688 29.28515625 C3.8180135 30.53113136 2.40989267 31.76660973 1 33 C0.34 32.67 -0.32 32.34 -1 32 C-0.7834375 31.27296875 -0.566875 30.5459375 -0.34375 29.796875 C2.50271951 19.51795734 3.15588839 10.25663726 0 0 Z " fill="#F6F6F6" transform="translate(267,79)"/>
<path d="M0 0 C2.4375 1.5625 2.4375 1.5625 4 4 C3.9375 7.625 3.9375 7.625 3 11 C-0.49124017 13.32749345 -1.89222251 13.50299316 -6 13 C-8.4375 11.4375 -8.4375 11.4375 -10 9 C-9.9375 5.375 -9.9375 5.375 -9 2 C-5.50875983 -0.32749345 -4.10777749 -0.50299316 0 0 Z " fill="#1B1B1A" transform="translate(136,402)"/>
<path d="M0 0 C2.375 1.125 2.375 1.125 4 3 C4.62060815 6.64607289 4.47464453 8.30628876 2.375 11.375 C-0.67785921 13.46379841 -2.36968224 13.54068562 -6 13 C-7.875 11.9375 -7.875 11.9375 -9 10 C-9.63316583 4.09045226 -9.63316583 4.09045226 -7.875 1.0625 C-5.09808875 -0.51108304 -3.13770673 -0.38420899 0 0 Z " fill="#111111" transform="translate(354,402)"/>
<path d="M0 0 C2.375 1.125 2.375 1.125 4 3 C4.62060815 6.64607289 4.47464453 8.30628876 2.375 11.375 C-0.67785921 13.46379841 -2.36968224 13.54068562 -6 13 C-7.875 11.9375 -7.875 11.9375 -9 10 C-9.63316583 4.09045226 -9.63316583 4.09045226 -7.875 1.0625 C-5.09808875 -0.51108304 -3.13770673 -0.38420899 0 0 Z " fill="#111111" transform="translate(270,402)"/>
<path d="M0 0 C1.8671875 0.9140625 1.8671875 0.9140625 3.8671875 3.9140625 C5.06256881 8.14676489 4.98395477 12.36430865 4.9296875 16.7265625 C4.92517578 17.41943359 4.92066406 18.11230469 4.91601562 18.82617188 C4.90431906 20.52217318 4.88638674 22.21812953 4.8671875 23.9140625 C4.5371875 23.9140625 4.2071875 23.9140625 3.8671875 23.9140625 C3.8671875 19.2940625 3.8671875 14.6740625 3.8671875 9.9140625 C1.9696875 10.4090625 0.0721875 10.9040625 -1.8828125 11.4140625 C-5.53243613 12.36613823 -8.33313681 12.9140625 -12.1328125 12.9140625 C-10.79876531 8.99443932 -9.15927574 6.48432141 -6.2578125 3.5390625 C-5.57976562 2.83007812 -4.90171875 2.12109375 -4.203125 1.390625 C-2.1328125 -0.0859375 -2.1328125 -0.0859375 0 0 Z " fill="#E5C334" transform="translate(270.1328125,296.0859375)"/>
<path d="M0 0 C1.51953125 1.609375 1.51953125 1.609375 2.8125 3.75 C3.25207031 4.44609375 3.69164062 5.1421875 4.14453125 5.859375 C5 8 5 8 4.890625 10.0625 C3.71355364 12.62314646 2.23538491 13.645128 -0.0625 15.25 C-0.79597656 15.77078125 -1.52945313 16.2915625 -2.28515625 16.828125 C-2.85105469 17.21484375 -3.41695312 17.6015625 -4 18 C-5.5056904 12.19233704 -6.21824777 7.0018137 -6 1 C-4 0 -4 0 0 0 Z " fill="#F1CA27" transform="translate(237,123)"/>
<path d="M0 0 C0 4.95 0 9.9 0 15 C-1.98 15.33 -3.96 15.66 -6 16 C-6.26554688 15.32453125 -6.53109375 14.6490625 -6.8046875 13.953125 C-7.15789062 13.06109375 -7.51109375 12.1690625 -7.875 11.25 C-8.22304687 10.36828125 -8.57109375 9.4865625 -8.9296875 8.578125 C-9.8646709 6.3259752 -10.87780794 4.16350541 -12 2 C-10.7625 1.67 -9.525 1.34 -8.25 1 C-7.55390625 0.814375 -6.8578125 0.62875 -6.140625 0.4375 C-4 0 -4 0 0 0 Z " fill="#FCFCFB" transform="translate(236,315)"/>
<path d="M0 0 C4 1 4 1 6.25 4.0625 C7.11625 5.5165625 7.11625 5.5165625 8 7 C8.33 4.69 8.66 2.38 9 0 C9.99 0 10.98 0 12 0 C12 4.29 12 8.58 12 13 C7.77000325 11.94250081 7.45069644 11.79967512 5.25 8.4375 C4.82203125 7.79683594 4.3940625 7.15617187 3.953125 6.49609375 C3.63859375 6.00238281 3.3240625 5.50867188 3 5 C2.67 7.64 2.34 10.28 2 13 C1.34 13 0.68 13 0 13 C0 8.71 0 4.42 0 0 Z " fill="#1C1C1B" transform="translate(366,402)"/>
<path d="M0 0 C4 1 4 1 6.25 4.0625 C7.11625 5.5165625 7.11625 5.5165625 8 7 C8.33 4.69 8.66 2.38 9 0 C9.99 0 10.98 0 12 0 C12 4.29 12 8.58 12 13 C7.77000325 11.94250081 7.45069644 11.79967512 5.25 8.4375 C4.82203125 7.79683594 4.3940625 7.15617187 3.953125 6.49609375 C3.63859375 6.00238281 3.3240625 5.50867188 3 5 C2.67 7.64 2.34 10.28 2 13 C1.34 13 0.68 13 0 13 C0 8.71 0 4.42 0 0 Z " fill="#1C1C1B" transform="translate(195,402)"/>
<path d="M0 0 C0.99 0.66 1.98 1.32 3 2 C-0.63 5.3 -4.26 8.6 -8 12 C-11 11 -11 11 -12.6875 7.9375 C-13.120625 6.968125 -13.55375 5.99875 -14 5 C-12.4188708 4.49307308 -10.83498617 3.99473557 -9.25 3.5 C-8.36828125 3.2215625 -7.4865625 2.943125 -6.578125 2.65625 C-4 2 -4 2 0 2 C0 1.34 0 0.68 0 0 Z " fill="#F1C92C" transform="translate(257,116)"/>
<path d="M0 0 C0.99 0 1.98 0 3 0 C4.38671875 1.53125 4.38671875 1.53125 5.6875 3.5 C6.12449219 4.1496875 6.56148437 4.799375 7.01171875 5.46875 C7.33785156 5.9740625 7.66398438 6.479375 8 7 C8.33 4.69 8.66 2.38 9 0 C9.66 0 10.32 0 11 0 C11 4.29 11 8.58 11 13 C6.61364256 10.80682128 5.48743095 9.08649371 3 5 C2.67 7.64 2.34 10.28 2 13 C1.34 13 0.68 13 0 13 C0 8.71 0 4.42 0 0 Z " fill="#151514" transform="translate(148,402)"/>
<path d="M0 0 C0.99 0 1.98 0 3 0 C3.33 3.3 3.66 6.6 4 10 C5.65 9.67 7.3 9.34 9 9 C9.33 6.03 9.66 3.06 10 0 C10.66 0 11.32 0 12 0 C12.08121924 1.60332791 12.13929134 3.20784026 12.1875 4.8125 C12.22230469 5.70582031 12.25710938 6.59914063 12.29296875 7.51953125 C12 10 12 10 10.67578125 11.796875 C8.05345482 13.6795709 6.12527449 13.4557692 3 13 C1.125 11.5625 1.125 11.5625 0 9 C-0.23374934 5.9820363 -0.17422493 3.01989876 0 0 Z " fill="#161615" transform="translate(297,402)"/>
<path d="M0 0 C2.5 0.25 2.5 0.25 4.5 2.25 C4.75 4.75 4.75 4.75 4.5 7.25 C2.5 9.25 2.5 9.25 0 9.5 C-2.5 9.25 -2.5 9.25 -4.5 7.25 C-4.75 4.75 -4.75 4.75 -4.5 2.25 C-2.5 0.25 -2.5 0.25 0 0 Z " fill="#E6E7E0" transform="translate(351.5,403.75)"/>
<path d="M0 0 C2.5 0.25 2.5 0.25 4.5 2.25 C4.75 4.75 4.75 4.75 4.5 7.25 C2.5 9.25 2.5 9.25 0 9.5 C-2.5 9.25 -2.5 9.25 -4.5 7.25 C-4.75 4.75 -4.75 4.75 -4.5 2.25 C-2.5 0.25 -2.5 0.25 0 0 Z " fill="#E6E7E0" transform="translate(267.5,403.75)"/>
<path d="M0 0 C3.125 0.375 3.125 0.375 6 1 C6.6875 3.3125 6.6875 3.3125 7 6 C5.875 7.875 5.875 7.875 4 9 C-0.42105263 8.57894737 -0.42105263 8.57894737 -2 7 C-2.1875 4.5625 -2.1875 4.5625 -2 2 C-1.34 1.34 -0.68 0.68 0 0 Z " fill="#E8E9E2" transform="translate(131,404)"/>
<path d="M0 0 C0.33 0.99 0.66 1.98 1 3 C-1.31 2.67 -3.62 2.34 -6 2 C-3.87219421 4.34058637 -1.88437779 5.70700306 1 7 C0.125 11.875 0.125 11.875 -1 13 C-3.9375 13.25 -3.9375 13.25 -7 13 C-7.66 12.01 -8.32 11.02 -9 10 C-6.69 10 -4.38 10 -2 10 C-1.67 9.34 -1.34 8.68 -1 8 C-2.175625 7.7834375 -2.175625 7.7834375 -3.375 7.5625 C-6 7 -6 7 -8 6 C-8 4.35 -8 2.7 -8 1 C-5.29120665 -0.35439668 -2.99066732 -0.06501451 0 0 Z " fill="#181817" transform="translate(252,402)"/>
<path d="M0 0 C2.97 0 5.94 0 9 0 C9 0.66 9 1.32 9 2 C6.69 2 4.38 2 2 2 C2 3.32 2 4.64 2 6 C3.98 6 5.96 6 8 6 C8 6.33 8 6.66 8 7 C6.02 7 4.04 7 2 7 C2 8.32 2 9.64 2 11 C4.31 11 6.62 11 9 11 C9 11.66 9 12.32 9 13 C6.03 13 3.06 13 0 13 C0 8.71 0 4.42 0 0 Z " fill="#030302" transform="translate(216,402)"/>
<path d="M0 0 C1.794375 1.4540625 1.794375 1.4540625 3.625 2.9375 C7.05913236 5.53448622 9.60375596 6.7801878 14 7 C14 7.33 14 7.66 14 8 C12.98679688 8.18175781 12.98679688 8.18175781 11.953125 8.3671875 C10.61507812 8.61855469 10.61507812 8.61855469 9.25 8.875 C7.92742187 9.11863281 7.92742187 9.11863281 6.578125 9.3671875 C3.67186315 9.97981084 3.67186315 9.97981084 0 12 C0 8.04 0 4.08 0 0 Z " fill="#E8E9E3" transform="translate(157,315)"/>
<path d="M0 0 C3.63 0 7.26 0 11 0 C11 0.66 11 1.32 11 2 C9.68 2 8.36 2 7 2 C7 5.63 7 9.26 7 13 C6.01 13 5.02 13 4 13 C4 9.37 4 5.74 4 2 C2.68 2 1.36 2 0 2 C0 1.34 0 0.68 0 0 Z " fill="#313130" transform="translate(316,402)"/>
<path d="M0 0 C0 5.28 0 10.56 0 16 C-0.99 16.33 -1.98 16.66 -3 17 C-3.33 11.72 -3.66 6.44 -4 1 C-1 0 -1 0 0 0 Z " fill="#FCFCFC" transform="translate(293,301)"/>
<path d="M0 0 C3.23693164 1.48483103 5.9325625 3.32707435 8.75 5.5 C9.54921875 6.1084375 10.3484375 6.716875 11.171875 7.34375 C11.77515625 7.8903125 12.3784375 8.436875 13 9 C13 9.66 13 10.32 13 11 C11.35 11.66 9.7 12.32 8 13 C6.66388095 11.0226631 5.33100742 9.04327287 4 7.0625 C3.6184375 6.49853516 3.236875 5.93457031 2.84375 5.35351562 C0 1.11328125 0 1.11328125 0 0 Z " fill="#E2E7E9" transform="translate(278,81)"/>
<path d="M0 0 C0.99 0 1.98 0 3 0 C3 3.63 3 7.26 3 11 C4.65 11 6.3 11 8 11 C8 11.66 8 12.32 8 13 C5.36 13 2.72 13 0 13 C0 8.71 0 4.42 0 0 Z " fill="#30302F" transform="translate(168,402)"/>
<path d="M0 0 C2.12161334 2.12161334 2.92986249 3.7733159 4.125 6.5 C4.47820312 7.2940625 4.83140625 8.088125 5.1953125 8.90625 C6 11 6 11 6 13 C4.02 13.33 2.04 13.66 0 14 C0 9.38 0 4.76 0 0 Z " fill="#39B5DD" transform="translate(230,110)"/>
<path d="M0 0 C0.99 0 1.98 0 3 0 C3 4.29 3 8.58 3 13 C1.68 12.67 0.36 12.34 -1 12 C-1.33 10.68 -1.66 9.36 -2 8 C-1.34 8 -0.68 8 0 8 C0 5.36 0 2.72 0 0 Z " fill="#363635" transform="translate(375,402)"/>
<path d="M0 0 C0.99 0 1.98 0 3 0 C3 4.29 3 8.58 3 13 C1.68 12.67 0.36 12.34 -1 12 C-1.33 10.68 -1.66 9.36 -2 8 C-1.34 8 -0.68 8 0 8 C0 5.36 0 2.72 0 0 Z " fill="#363635" transform="translate(204,402)"/>
<path d="M0 0 C0.66 0 1.32 0 2 0 C2 3.63 2 7.26 2 11 C3.98 11 5.96 11 8 11 C8 11.66 8 12.32 8 13 C5.36 13 2.72 13 0 13 C0 8.71 0 4.42 0 0 Z " fill="#131313" transform="translate(282,402)"/>
<path d="M0 0 C2.86724686 0.57344937 3.8614515 0.8614515 6 3 C6.125 5.625 6.125 5.625 6 8 C3.36 6.68 0.72 5.36 -2 4 C-1.34 2.68 -0.68 1.36 0 0 Z " fill="#F8F8F7" transform="translate(208,320)"/>
<path d="M0 0 C0.99 0.33 1.98 0.66 3 1 C2.814375 2.0725 2.62875 3.145 2.4375 4.25 C2.0695432 7.40391546 1.95534657 9.09818492 3 12 C0 11 0 11 -2 8 C-1.43396226 1.43396226 -1.43396226 1.43396226 0 0 Z " fill="#343432" transform="translate(128,403)"/>
<path d="M0 0 C0.99 0 1.98 0 3 0 C3.66 1.32 4.32 2.64 5 4 C4.01 4.495 4.01 4.495 3 5 C2.53476937 6.89533342 2.53476937 6.89533342 2.375 9.0625 C2.25125 10.361875 2.1275 11.66125 2 13 C1.34 13 0.68 13 0 13 C0 8.71 0 4.42 0 0 Z " fill="#050505" transform="translate(148,402)"/>
<path d="M0 0 C0.309375 0.639375 0.61875 1.27875 0.9375 1.9375 C1.8345163 3.93610821 1.8345163 3.93610821 3 5 C6.06481021 5.1613058 8.05549278 4.98150241 11 4 C10 7 10 7 8 8 C2.73156342 8.44837758 2.73156342 8.44837758 0.0625 6.8125 C-1 5 -1 5 -0.6875 2.3125 C-0.460625 1.549375 -0.23375 0.78625 0 0 Z " fill="#1A1A19" transform="translate(346,407)"/>
<path d="M0 0 C0.309375 0.639375 0.61875 1.27875 0.9375 1.9375 C1.8345163 3.93610821 1.8345163 3.93610821 3 5 C6.06481021 5.1613058 8.05549278 4.98150241 11 4 C10 7 10 7 8 8 C2.73156342 8.44837758 2.73156342 8.44837758 0.0625 6.8125 C-1 5 -1 5 -0.6875 2.3125 C-0.460625 1.549375 -0.23375 0.78625 0 0 Z " fill="#1A1A19" transform="translate(262,407)"/>
<path d="M0 0 C0.99 0 1.98 0 3 0 C3 2.97 3 5.94 3 9 C2.01 9 1.02 9 0 9 C0 6.03 0 3.06 0 0 Z " fill="#40403E" transform="translate(297,402)"/>
<path d="M0 0 C2.97 0 5.94 0 9 0 C9 0.66 9 1.32 9 2 C6.69 2 4.38 2 2 2 C2 3.32 2 4.64 2 6 C1.34 6 0.68 6 0 6 C0 4.02 0 2.04 0 0 Z " fill="#0C0C0B" transform="translate(216,402)"/>
<path d="M0 0 C2.64752004 2.57784846 4.94432065 4.91648098 7 8 C6.34 8.66 5.68 9.32 5 10 C4.16121545 8.71186658 3.32913217 7.41936744 2.5 6.125 C2.0359375 5.40570313 1.571875 4.68640625 1.09375 3.9453125 C0 2 0 2 0 0 Z " fill="#3C5E4D" transform="translate(210,165)"/>
</svg>
